<?xml version="1.0" encoding="UTF-8" standalone="no"?>
<svg
   xmlns:dc="http://purl.org/dc/elements/1.1/"
   xmlns:cc="http://creativecommons.org/ns#"
   xmlns:rdf="http://www.w3.org/1999/02/22-rdf-syntax-ns#"
   xmlns:svg="http://www.w3.org/2000/svg"
   xmlns="http://www.w3.org/2000/svg"
   id="svg908"
   version="1.1"
   viewBox="0 0 204.6985 35.183976"
   height="35.183975"
   width="204.6985">
  <metadata
     id="metadata914">
    <rdf:RDF>
      <cc:Work
         rdf:about="">
        <dc:format>image/svg+xml</dc:format>
        <dc:type
           rdf:resource="http://purl.org/dc/dcmitype/StillImage" />
        <dc:title>Logo</dc:title>
      </cc:Work>
    </rdf:RDF>
  </metadata>
  <defs
     id="defs912" />
  <!-- Generator: Sketch 55.2 (78181) - https://sketchapp.com -->
  <title
     id="title892">Logo</title>
  <desc
     id="desc894">Created with Sketch.</desc>
  <g
     transform="translate(-68.25265,-1.0265813)"
     style="fill:none;fill-rule:evenodd;stroke:none;stroke-width:1"
     id="Page-1">
    <g
       style="fill:#ffffff;fill-rule:nonzero"
       transform="matrix(0.98365204,0,0,0.98365204,-244.44204,-48.303039)"
       id="Home">
      <g
         transform="translate(250,50)"
         id="Logo">
        <g
           transform="translate(224.89032)"
           id="noun_Running_1473810">
          <g
             id="Group">
            <path
               id="Path"
               d="m 17.641082,30.927273 c 0,-0.490909 -0.32974,-0.818182 -0.824349,-0.818182 H 2.4730489 c -0.4946098,0 -0.8243496,0.327273 -0.8243496,0.818182 0,0.490909 0.3297398,0.818181 0.8243496,0.818181 H 16.816733 c 0.494609,0 0.824349,-0.40909 0.824349,-0.818181 z" />
            <path
               id="path897"
               d="M 5.7704474,34.2 H 4.1217482 c -0.4946098,0 -0.8243497,0.327273 -0.8243497,0.818182 0,0.490909 0.3297399,0.818182 0.8243497,0.818182 h 1.6486992 c 0.4946098,0 0.8243497,-0.327273 0.8243497,-0.818182 C 6.5947971,34.527273 6.2650572,34.2 5.7704474,34.2 Z" />
            <path
               id="path899"
               d="m 9.6448907,26.836364 c 0,-0.49091 -0.3297398,-0.818182 -0.8243496,-0.818182 H 0.82434964 C 0.32973985,26.018182 0,26.345454 0,26.836364 c 0,0.490909 0.32973985,0.818181 0.82434964,0.818181 H 8.8205411 c 0.4946098,0 0.8243496,-0.409091 0.8243496,-0.818181 z" />
            <path
               id="Shape"
               d="m 50.615068,28.227273 c -0.247305,-0.490909 -0.741915,-0.9 -1.236525,-1.145455 l -6.265057,-2.372727 v 0 0 l -2.555484,-0.9 c -0.741915,-0.327273 -1.401394,-0.818182 -1.813569,-1.472727 l -2.143309,-3.518182 c 0.412175,-0.08182 0.65948,-0.409091 0.65948,-0.818182 0,-0.490909 -0.32974,-0.818182 -0.82435,-0.818182 h -0.82435 l -0.989219,-1.636363 c 0.412175,-0.08182 0.659479,-0.409091 0.659479,-0.818182 0,-0.490909 -0.329739,-0.818182 -0.824349,-0.818182 h -0.82435 L 32.809115,12.6 c 0.32974,-0.08182 0.577045,-0.409091 0.577045,-0.736364 0,-0.490909 -0.32974,-0.818181 -0.824349,-0.818181 H 31.819896 L 30.748241,9.3272727 c 0,0 0,-0.081818 -0.08244,-0.081818 C 29.676587,8.1 28.357627,7.5272727 26.956233,7.6909091 c -1.236524,0.1636363 -2.225744,0.9 -2.637919,1.8 -0.08244,0.2454545 -0.08244,0.4909091 0.08244,0.7363639 l 6.842102,11.618181 c 0.08243,0.163637 0.247305,0.327273 0.412175,0.327273 l 8.408366,3.190909 h 0.08243 l 2.473049,0.9 v 0 0 0 0 0 l 6.182622,2.372728 c 0.16487,0.08182 0.32974,0.163636 0.412175,0.409091 0.32974,0.654545 0.32974,1.30909 -0.08243,1.963636 H 35.694339 c -0.824349,0 -1.648699,-0.245455 -2.308179,-0.736364 L 10.386805,13.336364 c 0,0 0.32974,-0.163637 0.741915,-0.736364 0.412175,-0.572727 0.577045,-1.309091 0.577045,-2.045454 L 10.96385,3.6818182 11.95307,2.1272727 C 12.200375,1.8 12.694984,1.7181818 13.024724,1.9636364 c 0.247305,0.2454545 1.236525,1.0636363 3.627139,4.9090909 1.236524,1.8 3.214963,3.1090909 5.440707,3.4363637 0.412175,0.08182 0.906785,-0.245455 0.98922,-0.6545455 0.08243,-0.4090909 -0.247305,-0.9 -0.65948,-0.9818182 C 20.691176,8.3454546 19.042477,7.3636364 18.053257,5.8909091 15.168033,1.4727273 14.343684,0.81818182 14.013944,0.57272727 12.942289,-0.16363636 11.45846,0.08181818 10.63411,1.1454545 L 5.6055775,9.0818182 C 5.2758377,9.5727273 5.1934027,10.145455 5.2758377,10.718182 c -0.4946098,0.163636 -0.9892196,0.409091 -1.2365245,0.9 L 2.7203538,13.663636 C 1.9784391,14.727273 2.308179,16.2 3.3798335,16.936364 c 0.7419147,0.572727 2.308179,1.554545 4.616358,3.027272 0.1648699,0.08182 0.3297398,0.163637 0.4121748,0.163637 0.2473049,0 0.4946098,-0.163637 0.6594797,-0.409091 0.2473049,-0.409091 0.1648699,-0.9 -0.2473049,-1.145455 C 6.5947971,17.1 5.0285328,16.118182 4.2866181,15.545455 3.9568782,15.3 3.8744433,14.890909 4.1217482,14.481818 L 5.3582726,12.6 c 0.2473049,-0.327273 0.7419147,-0.409091 1.0716546,-0.163636 v 0 L 32.314506,31.581818 c 0.989219,0.736364 2.143309,1.063636 3.297398,1.063636 H 46.987929 C 45.256795,33.463636 42.866181,34.2 40.805307,34.2 v 0 h -2.885224 -2.390614 v 0 c -1.401394,0 -2.802789,-0.409091 -3.956878,-1.145454 -4.781228,-3.027273 -13.684204,-8.672728 -20.196566,-12.845455 -0.412175,-0.245455 -0.906785,-0.163636 -1.154089,0.245454 -0.2473054,0.409091 -0.16487,0.9 0.247304,1.145455 6.347493,4.090909 15.003164,9.572727 19.866827,12.681818 H 9.067846 c -0.4946098,0 -0.8243496,0.327273 -0.8243496,0.818182 0,0.490909 0.3297398,0.818182 0.8243496,0.818182 h 26.461623 v 0 h 2.390614 2.802789 v 0 c 3.379833,0 8.243496,-1.8 9.480021,-3.518182 1.071654,-1.472727 1.154089,-2.863636 0.412175,-4.172727 z M 32.396941,20.863636 25.967013,9.9818182 c 0.247305,-0.2454546 0.65948,-0.4909091 1.15409,-0.5727273 0.49461,-0.081818 1.401394,0 2.225744,0.9000001 l 0.49461,0.818182 h -0.741915 c -0.49461,0 -0.82435,0.327273 -0.82435,0.818182 0,0.490909 0.32974,0.818181 0.82435,0.818181 h 1.731134 l 0.82435,1.309091 h -0.65948 c -0.494609,0 -0.824349,0.327273 -0.824349,0.818182 0,0.490909 0.32974,0.818182 0.824349,0.818182 h 1.6487 l 0.989219,1.554545 h -0.65948 c -0.494609,0 -0.824349,0.327273 -0.824349,0.818182 0,0.490909 0.32974,0.818182 0.824349,0.818182 h 1.6487 l 2.308179,3.6 z M 7.0069719,9.9818182 9.5624558,5.9727273 10.057066,10.718182 c 0,0.327273 -0.082435,0.654545 -0.2473053,0.9 -0.16487,0.245454 -0.4946098,0.9 -1.2365245,0.327273 0,0 -0.4121748,-0.245455 -1.1540895,-0.818182 C 6.9245369,10.718182 6.842102,10.309091 7.0069719,9.9818182 Z" />
          </g>
        </g>
        <text
           id="text4621"
           y="32.137344"
           x="134.98964"
           style="font-style:normal;font-weight:normal;font-size:40.66478729px;line-height:1.25;font-family:sans-serif;letter-spacing:0px;word-spacing:0px;fill:#ffffff;fill-opacity:1;stroke:none;stroke-width:1.01661968"
           xml:space="preserve"><tspan
             dy="0"
             dx="8.0300055"
             style="font-style:normal;font-variant:normal;font-weight:bold;font-stretch:normal;font-size:37.9538002px;line-height:0;font-family:sans-serif;-inkscape-font-specification:'sans-serif, Bold';font-variant-ligatures:normal;font-variant-caps:normal;font-variant-numeric:normal;font-feature-settings:normal;text-align:center;letter-spacing:-1.52492952px;writing-mode:lr-tb;text-anchor:middle;fill:#ffffff;fill-opacity:1;stroke-width:1.01661968"
             y="32.137344"
             x="134.22717"
             id="tspan4619">uShoes</tspan></text>
      </g>
    </g>
  </g>
</svg>
